<svg xmlns="http://www.w3.org/2000/svg" width="1200" height="1200" viewBox="0 0 1200 1200" version="1.1"><path d="M 730.431 140.006 C 714.335 141.668, 694.333 147.854, 681 155.295 C 553.602 226.394, 498.429 350.942, 538.711 476.500 C 545.525 497.741, 565.236 539, 568.568 539 C 568.807 539, 604.214 516.129, 647.251 488.175 C 690.288 460.221, 745.525 424.361, 770 408.487 C 835.749 365.842, 845.435 357.200, 859.882 328.295 C 905.223 237.579, 831.003 129.624, 730.431 140.006 M 326 212.109 C 275.100 217.875, 231.001 254.119, 215.612 302.834 C 205.580 334.593, 209.435 371.448, 228.481 425.865 C 271.155 547.788, 400.238 621.050, 526.500 595.007 C 541.684 591.875, 542.003 591.795, 541.964 591.125 C 541.927 590.471, 539.465 580.660, 538.044 575.500 C 536.261 569.032, 522.856 519.047, 520.880 511.500 C 519.727 507.100, 518.177 501.475, 517.434 499 C 516.691 496.525, 514.738 489.325, 513.093 483 C 511.449 476.675, 509.366 468.800, 508.465 465.500 C 507.564 462.200, 505.527 454.550, 503.940 448.500 C 500.287 434.583, 496.865 421.872, 492.497 406 C 490.606 399.125, 487.949 389.225, 486.595 384 C 485.240 378.775, 483.406 371.800, 482.520 368.500 C 481.633 365.200, 479.763 358.225, 478.363 353 C 476.964 347.775, 475.023 340.575, 474.050 337 C 473.077 333.425, 470.849 325.100, 469.098 318.500 C 450.034 246.605, 393.371 204.477, 326 212.109 M 811.983 452.028 C 753.222 455.749, 697.357 479.340, 653.500 518.954 C 643.348 528.124, 625.916 547.056, 626.603 548.166 C 627.003 548.813, 640.804 560.048, 699.492 607.500 C 708.335 614.650, 746.087 645.250, 783.386 675.500 C 869.994 745.741, 871.599 746.884, 894.234 754.453 C 1033.027 800.861, 1128.981 623.044, 1016.256 528.328 C 954.218 476.202, 909.672 456.505, 843.616 451.994 C 828.372 450.953, 828.976 450.952, 811.983 452.028 M 583.138 741.889 C 518.500 910.255, 523.331 896.074, 522.296 920.500 C 516.144 1065.681, 717.025 1109.322, 773.160 975 C 784.551 947.742, 793.267 921.953, 796.987 904.500 C 820.619 793.606, 770.539 680.409, 672.714 623.603 C 662.712 617.795, 638.160 606, 636.072 606 C 635.651 606, 611.831 667.150, 583.138 741.889 M 267.076 618.010 C 115.826 639.364, 118.317 859.855, 270 876.898 C 432.463 895.152, 561.518 802.888, 581.453 654.237 C 584.793 629.331, 590.431 632.582, 539.500 630.049 C 515.272 628.844, 474.348 626.710, 442.500 624.989 C 424.409 624.012, 366.582 620.950, 329 618.979 C 299.987 617.458, 273.881 617.049, 267.076 618.010" stroke="none" fill="#f76d40" fill-rule="evenodd"/></svg>